# xmcd CD database file
#
# Track frame offsets:
#	187
#	20300
#	38922
#	61105
#	84915
#	103425
#	112392
#	127807
#	146877
#	168220
#	182382
#	201037
#
# Disc length: 2869 seconds
#
# Revision: 0
# Processed by: cddbd v1.5.1PL2 Copyright (c) Steve Scherf et al.
# Submitted via: CDex 1.51
#
DISCID=9e0b330c
DTITLE=ビートたけし - ビートたけし/豪華絢爛
DYEAR=1988
DGENRE=DOMESTIC(J-POPS)
TTITLE0=あのこ逃げ足が早いよ
TTITLE1=BOY\x{ff5e}アナザー・ヴァージョン
TTITLE2=ハートブレイク・ダンディ
TTITLE3=眠れない□きみが欲しい
TTITLE4=暗闇のチェンジ・バンド
TTITLE5=中国孤児の唄
TTITLE6=THE BAND
TTITLE7=ライブ・イン・スクールバス
TTITLE8=うぶな娘
TTITLE9=BE COOL
TTITLE10=バーボンEXPRESS
TTITLE11=東京子守唄
EXTD=YEAR: 1988
EXTT0=
EXTT1=
EXTT2=
EXTT3=
EXTT4=
EXTT5=
EXTT6=
EXTT7=
EXTT8=
EXTT9=
EXTT10=
EXTT11=
PLAYORDER=
